<?xml version="1.0" encoding="UTF-8" standalone="no"?>
<svg
   xmlns:dc="http://purl.org/dc/elements/1.1/"
   xmlns:cc="http://creativecommons.org/ns#"
   xmlns:rdf="http://www.w3.org/1999/02/22-rdf-syntax-ns#"
   xmlns:svg="http://www.w3.org/2000/svg"
   xmlns="http://www.w3.org/2000/svg"
   xmlns:sodipodi="http://sodipodi.sourceforge.net/DTD/sodipodi-0.dtd"
   xmlns:inkscape="http://www.inkscape.org/namespaces/inkscape"
   sodipodi:docname="Sinclair.svg"
   inkscape:version="1.0 (4035a4fb49, 2020-05-01)"
   id="svg8"
   version="1.1"
   viewBox="0 0 210 297"
   height="297mm"
   width="210mm">
  <defs
     id="defs2" />
  <sodipodi:namedview
     inkscape:window-maximized="1"
     inkscape:window-y="-8"
     inkscape:window-x="-8"
     inkscape:window-height="1017"
     inkscape:window-width="1920"
     showgrid="false"
     inkscape:document-rotation="0"
     inkscape:current-layer="layer1"
     inkscape:document-units="mm"
     inkscape:cy="1061.6148"
     inkscape:cx="382.26298"
     inkscape:zoom="0.7"
     inkscape:pageshadow="2"
     inkscape:pageopacity="0.0"
     borderopacity="1.0"
     bordercolor="#666666"
     pagecolor="#ffffff"
     id="base" />
  <metadata
     id="metadata5">
    <rdf:RDF>
      <cc:Work
         rdf:about="">
        <dc:format>image/svg+xml</dc:format>
        <dc:type
           rdf:resource="http://purl.org/dc/dcmitype/StillImage" />
        <dc:title></dc:title>
      </cc:Work>
    </rdf:RDF>
  </metadata>
  <g
     id="layer1"
     inkscape:groupmode="layer"
     inkscape:label="Layer 1">
    <path
       id="path881"
       d="m 122.94345,169.10482 v -11.70179 h 3.04285 3.04286 v 11.70179 11.7018 h -3.04286 -3.04285 z m -111.064297,9.17962 v -2.35381 l 13.129308,-0.0455 c 14.333531,-0.0496 13.486248,0.0134 13.492782,-1.00406 0.0065,-1.00642 0.410073,-0.97769 -13.732262,-0.97769 H 11.879153 v -5.55625 -5.55625 h 16.450448 16.450447 v 2.44139 2.44138 H 31.863459 c -7.104124,0 -13.05196,0.046 -13.217412,0.1022 -0.414735,0.1409 -0.414735,1.33841 0,1.47931 0.165452,0.0562 6.113288,0.1022 13.217412,0.1022 h 12.916589 v 5.64044 5.64043 H 28.329601 11.879153 Z m 34.612502,-6.56986 v -8.92368 h 3.137947 3.137947 v 8.92368 8.92367 h -3.137947 -3.137947 z m 7.797322,0 v -8.92368 h 16.450448 16.450447 v 8.92368 8.92367 h -3.135687 -3.135686 l -0.04981,-6.4402 -0.0498,-6.44019 -10.03192,-0.0436 -10.03192,-0.0436 v 6.48378 6.48378 h -3.233036 -3.233036 z m 34.232145,0 v -8.92368 h 16.450448 16.45045 v 2.44139 2.44138 H 108.10613 94.790253 l 0.05093,4.083 0.05093,4.083 13.264957,0.0432 13.26496,0.0432 v 2.35605 2.35605 H 104.97157 88.521122 Z m 42.074448,3.32533 0.0501,-5.59834 12.72849,-0.0433 c 11.51192,-0.0392 12.76159,-0.0698 13.07478,-0.32074 0.39598,-0.31727 0.45369,-0.90468 0.11807,-1.20181 -0.17301,-0.15318 -3.34714,-0.20205 -13.12232,-0.20205 h -12.89411 v -2.44138 -2.44139 h 16.35536 16.35536 v 8.92368 8.92367 h -16.35793 -16.35792 z m 25.92982,0.47293 c 0.37198,-0.45054 0.33804,-0.80765 -0.11792,-1.24095 l -0.38777,-0.36849 h -9.15645 c -9.1394,0 -9.15727,6.8e-4 -9.59661,0.3661 -0.56118,0.46675 -0.55453,0.72656 0.0319,1.24576 l 0.47208,0.41795 9.24246,-0.0468 c 8.8971,-0.045 9.25254,-0.059 9.51229,-0.3736 z m 8.25734,-3.88245 v -9.00786 h 3.04286 3.04286 v 9.00786 9.00786 h -3.04286 -3.04286 z m 7.60715,0.0842 v -8.92368 h 15.49955 15.49956 v 2.44139 2.44138 H 191.2379 c -10.90476,0 -12.16292,0.0273 -12.26651,0.26633 -0.0635,0.14648 -0.11544,3.06351 -0.11544,6.48229 v 6.21596 h -3.23304 -3.23303 z M 46.491655,159.3393 v -2.10464 h 3.137947 3.137947 v 2.10464 2.10464 h -3.137947 -3.137947 z m 118.291075,0 v -2.10464 h 3.04286 3.04286 v 2.10464 2.10464 h -3.04286 -3.04286 z"
       style="fill:#000000;stroke-width:0.178943" />
    <path
       d=""
       id="path879"
       style="fill:#000000;stroke-width:0.178943" />
  </g>
</svg>
