M48
; DRILL file {KiCad (5.1.5)-3} date 2/13/2021 11:02:20 PM
; FORMAT={-:-/ absolute / inch / decimal}
; #@! TF.CreationDate,2021-02-13T23:02:20-06:00
; #@! TF.GenerationSoftware,Kicad,Pcbnew,(5.1.5)-3
; #@! TF.FileFunction,NonPlated,1,2,NPTH
FMAT,2
INCH
T1C0.0669
T2C0.0670
T3C0.1200
T4C0.1570
T5C0.1575
%
G90
G05
T1
X8.8142Y-7.1547
X9.2142Y-7.1547
X2.1606Y-6.4047
X2.5606Y-6.4047
T2
X10.2252Y-7.1378
X10.6252Y-7.1378
X8.0625Y-7.15
X8.4625Y-7.15
X9.75Y-5.65
X10.15Y-5.65
X4.6875Y-6.4
X5.0875Y-6.4
X6.375Y-4.9
X6.775Y-4.9
X7.125Y-4.9
X7.525Y-4.9
X5.4375Y-6.4
X5.8375Y-6.4
X3.5625Y-7.15
X3.9625Y-7.15
X2.3437Y-7.15
X2.7437Y-7.15
X9.0Y-5.65
X9.4Y-5.65
X8.625Y-4.9
X9.025Y-4.9
X6.5625Y-7.15
X6.9625Y-7.15
X6.6563Y-7.9
X7.0563Y-7.9
X4.3125Y-7.15
X4.7125Y-7.15
X7.3125Y-7.15
X7.7125Y-7.15
X3.1875Y-6.4
X3.5875Y-6.4
X5.0625Y-7.15
X5.4625Y-7.15
X2.625Y-4.9
X3.025Y-4.9
X5.8125Y-7.15
X6.2125Y-7.15
X6.75Y-5.65
X7.15Y-5.65
X9.1875Y-6.4
X9.5875Y-6.4
X4.875Y-4.9
X5.275Y-4.9
X4.5Y-5.65
X4.9Y-5.65
X5.625Y-4.9
X6.025Y-4.9
X6.0Y-5.65
X6.4Y-5.65
X3.9375Y-6.4
X4.3375Y-6.4
X8.4299Y-6.3976
X8.8299Y-6.3976
X4.125Y-4.9
X4.525Y-4.9
X7.6819Y-6.4
X8.0819Y-6.4
X7.5Y-5.65
X7.9Y-5.65
X10.4102Y-6.3937
X10.8102Y-6.3937
X3.0047Y-5.6496
X3.4047Y-5.6496
X6.9375Y-6.4
X7.3375Y-6.4
X9.375Y-4.9
X9.775Y-4.9
X5.25Y-5.65
X5.65Y-5.65
X3.75Y-5.65
X4.15Y-5.65
X8.25Y-5.65
X8.65Y-5.65
X6.1875Y-6.4
X6.5875Y-6.4
X3.375Y-4.9
X3.775Y-4.9
X7.875Y-4.9
X8.275Y-4.9
T3
X4.8863Y-8.175
X8.8263Y-8.175
X10.1402Y-6.1187
X11.0802Y-6.1187
X9.9552Y-6.8628
X10.8952Y-6.8628
X2.0737Y-6.875
X3.0137Y-6.875
T4
X5.825Y-4.9
X6.2Y-5.65
X4.1375Y-6.4
X8.6299Y-6.3976
X4.325Y-4.9
X7.8819Y-6.4
X7.7Y-5.65
X10.1402Y-6.7187
X10.6102Y-6.3937
X11.0802Y-6.7187
X3.2047Y-5.6496
X7.1375Y-6.4
X9.575Y-4.9
X5.45Y-5.65
X3.95Y-5.65
X8.45Y-5.65
X6.3875Y-6.4
X3.575Y-4.9
X8.075Y-4.9
X9.9552Y-7.4628
X10.4252Y-7.1378
X10.8952Y-7.4628
X8.2625Y-7.15
X9.95Y-5.65
X4.8875Y-6.4
X6.575Y-4.9
X7.325Y-4.9
X5.6375Y-6.4
X3.7625Y-7.15
X2.0737Y-7.475
X2.5437Y-7.15
X3.0137Y-7.475
X9.2Y-5.65
X8.825Y-4.9
X6.7625Y-7.15
X4.8863Y-7.575
X6.8563Y-7.9
X8.8263Y-7.575
X4.5125Y-7.15
X7.5125Y-7.15
X3.3875Y-6.4
X5.2625Y-7.15
X2.825Y-4.9
X6.0125Y-7.15
X6.95Y-5.65
X9.3875Y-6.4
X5.075Y-4.9
X4.7Y-5.65
T5
X9.0142Y-7.1547
X2.3606Y-6.4047
T0
M30
