G04 #@! TF.GenerationSoftware,KiCad,Pcbnew,(5.1.5)-3*
G04 #@! TF.CreationDate,2021-02-13T23:02:18-06:00*
G04 #@! TF.ProjectId,SinclairSpectrumKeyboard,53696e63-6c61-4697-9253-706563747275,rev?*
G04 #@! TF.SameCoordinates,Original*
G04 #@! TF.FileFunction,Copper,L2,Bot*
G04 #@! TF.FilePolarity,Positive*
%FSLAX46Y46*%
G04 Gerber Fmt 4.6, Leading zero omitted, Abs format (unit mm)*
G04 Created by KiCad (PCBNEW (5.1.5)-3) date 2021-02-13 23:02:18*
%MOMM*%
%LPD*%
G04 APERTURE LIST*
%ADD10C,0.300000*%
%ADD11C,2.200000*%
%ADD12O,1.700000X1.700000*%
%ADD13R,1.700000X1.700000*%
%ADD14C,6.400000*%
%ADD15C,2.286000*%
%ADD16C,0.600000*%
%ADD17C,0.375000*%
G04 APERTURE END LIST*
D10*
X260892857Y-194832142D02*
X260678571Y-194903571D01*
X260321428Y-194903571D01*
X260178571Y-194832142D01*
X260107142Y-194760714D01*
X260035714Y-194617857D01*
X260035714Y-194475000D01*
X260107142Y-194332142D01*
X260178571Y-194260714D01*
X260321428Y-194189285D01*
X260607142Y-194117857D01*
X260750000Y-194046428D01*
X260821428Y-193975000D01*
X260892857Y-193832142D01*
X260892857Y-193689285D01*
X260821428Y-193546428D01*
X260750000Y-193475000D01*
X260607142Y-193403571D01*
X260250000Y-193403571D01*
X260035714Y-193475000D01*
X259392857Y-194903571D02*
X259392857Y-193403571D01*
X258821428Y-193403571D01*
X258678571Y-193475000D01*
X258607142Y-193546428D01*
X258535714Y-193689285D01*
X258535714Y-193903571D01*
X258607142Y-194046428D01*
X258678571Y-194117857D01*
X258821428Y-194189285D01*
X259392857Y-194189285D01*
X257892857Y-194117857D02*
X257392857Y-194117857D01*
X257178571Y-194903571D02*
X257892857Y-194903571D01*
X257892857Y-193403571D01*
X257178571Y-193403571D01*
X255678571Y-194760714D02*
X255750000Y-194832142D01*
X255964285Y-194903571D01*
X256107142Y-194903571D01*
X256321428Y-194832142D01*
X256464285Y-194689285D01*
X256535714Y-194546428D01*
X256607142Y-194260714D01*
X256607142Y-194046428D01*
X256535714Y-193760714D01*
X256464285Y-193617857D01*
X256321428Y-193475000D01*
X256107142Y-193403571D01*
X255964285Y-193403571D01*
X255750000Y-193475000D01*
X255678571Y-193546428D01*
X255250000Y-193403571D02*
X254392857Y-193403571D01*
X254821428Y-194903571D02*
X254821428Y-193403571D01*
X253035714Y-194903571D02*
X253535714Y-194189285D01*
X253892857Y-194903571D02*
X253892857Y-193403571D01*
X253321428Y-193403571D01*
X253178571Y-193475000D01*
X253107142Y-193546428D01*
X253035714Y-193689285D01*
X253035714Y-193903571D01*
X253107142Y-194046428D01*
X253178571Y-194117857D01*
X253321428Y-194189285D01*
X253892857Y-194189285D01*
X252392857Y-193403571D02*
X252392857Y-194617857D01*
X252321428Y-194760714D01*
X252250000Y-194832142D01*
X252107142Y-194903571D01*
X251821428Y-194903571D01*
X251678571Y-194832142D01*
X251607142Y-194760714D01*
X251535714Y-194617857D01*
X251535714Y-193403571D01*
X250821428Y-194903571D02*
X250821428Y-193403571D01*
X250321428Y-194475000D01*
X249821428Y-193403571D01*
X249821428Y-194903571D01*
X247964285Y-194903571D02*
X247964285Y-193403571D01*
X247107142Y-194903571D02*
X247750000Y-194046428D01*
X247107142Y-193403571D02*
X247964285Y-194260714D01*
X246464285Y-194117857D02*
X245964285Y-194117857D01*
X245750000Y-194903571D02*
X246464285Y-194903571D01*
X246464285Y-193403571D01*
X245750000Y-193403571D01*
X244821428Y-194189285D02*
X244821428Y-194903571D01*
X245321428Y-193403571D02*
X244821428Y-194189285D01*
X244321428Y-193403571D01*
X243321428Y-194117857D02*
X243107142Y-194189285D01*
X243035714Y-194260714D01*
X242964285Y-194403571D01*
X242964285Y-194617857D01*
X243035714Y-194760714D01*
X243107142Y-194832142D01*
X243250000Y-194903571D01*
X243821428Y-194903571D01*
X243821428Y-193403571D01*
X243321428Y-193403571D01*
X243178571Y-193475000D01*
X243107142Y-193546428D01*
X243035714Y-193689285D01*
X243035714Y-193832142D01*
X243107142Y-193975000D01*
X243178571Y-194046428D01*
X243321428Y-194117857D01*
X243821428Y-194117857D01*
X242035714Y-193403571D02*
X241750000Y-193403571D01*
X241607142Y-193475000D01*
X241464285Y-193617857D01*
X241392857Y-193903571D01*
X241392857Y-194403571D01*
X241464285Y-194689285D01*
X241607142Y-194832142D01*
X241750000Y-194903571D01*
X242035714Y-194903571D01*
X242178571Y-194832142D01*
X242321428Y-194689285D01*
X242392857Y-194403571D01*
X242392857Y-193903571D01*
X242321428Y-193617857D01*
X242178571Y-193475000D01*
X242035714Y-193403571D01*
X240821428Y-194475000D02*
X240107142Y-194475000D01*
X240964285Y-194903571D02*
X240464285Y-193403571D01*
X239964285Y-194903571D01*
X238607142Y-194903571D02*
X239107142Y-194189285D01*
X239464285Y-194903571D02*
X239464285Y-193403571D01*
X238892857Y-193403571D01*
X238750000Y-193475000D01*
X238678571Y-193546428D01*
X238607142Y-193689285D01*
X238607142Y-193903571D01*
X238678571Y-194046428D01*
X238750000Y-194117857D01*
X238892857Y-194189285D01*
X239464285Y-194189285D01*
X237964285Y-194903571D02*
X237964285Y-193403571D01*
X237607142Y-193403571D01*
X237392857Y-193475000D01*
X237250000Y-193617857D01*
X237178571Y-193760714D01*
X237107142Y-194046428D01*
X237107142Y-194260714D01*
X237178571Y-194546428D01*
X237250000Y-194689285D01*
X237392857Y-194832142D01*
X237607142Y-194903571D01*
X237964285Y-194903571D01*
X262214285Y-197453571D02*
X262214285Y-195953571D01*
X261857142Y-195953571D01*
X261642857Y-196025000D01*
X261500000Y-196167857D01*
X261428571Y-196310714D01*
X261357142Y-196596428D01*
X261357142Y-196810714D01*
X261428571Y-197096428D01*
X261500000Y-197239285D01*
X261642857Y-197382142D01*
X261857142Y-197453571D01*
X262214285Y-197453571D01*
X260071428Y-197453571D02*
X260071428Y-196667857D01*
X260142857Y-196525000D01*
X260285714Y-196453571D01*
X260571428Y-196453571D01*
X260714285Y-196525000D01*
X260071428Y-197382142D02*
X260214285Y-197453571D01*
X260571428Y-197453571D01*
X260714285Y-197382142D01*
X260785714Y-197239285D01*
X260785714Y-197096428D01*
X260714285Y-196953571D01*
X260571428Y-196882142D01*
X260214285Y-196882142D01*
X260071428Y-196810714D01*
X259357142Y-196453571D02*
X259357142Y-197453571D01*
X259357142Y-196596428D02*
X259285714Y-196525000D01*
X259142857Y-196453571D01*
X258928571Y-196453571D01*
X258785714Y-196525000D01*
X258714285Y-196667857D01*
X258714285Y-197453571D01*
X257000000Y-195953571D02*
X256642857Y-197453571D01*
X256357142Y-196382142D01*
X256071428Y-197453571D01*
X255714285Y-195953571D01*
X254571428Y-197382142D02*
X254714285Y-197453571D01*
X255000000Y-197453571D01*
X255142857Y-197382142D01*
X255214285Y-197239285D01*
X255214285Y-196667857D01*
X255142857Y-196525000D01*
X255000000Y-196453571D01*
X254714285Y-196453571D01*
X254571428Y-196525000D01*
X254500000Y-196667857D01*
X254500000Y-196810714D01*
X255214285Y-196953571D01*
X253857142Y-197453571D02*
X253857142Y-196453571D01*
X253857142Y-196739285D02*
X253785714Y-196596428D01*
X253714285Y-196525000D01*
X253571428Y-196453571D01*
X253428571Y-196453571D01*
X252928571Y-196453571D02*
X252928571Y-197453571D01*
X252928571Y-196596428D02*
X252857142Y-196525000D01*
X252714285Y-196453571D01*
X252500000Y-196453571D01*
X252357142Y-196525000D01*
X252285714Y-196667857D01*
X252285714Y-197453571D01*
X251000000Y-197382142D02*
X251142857Y-197453571D01*
X251428571Y-197453571D01*
X251571428Y-197382142D01*
X251642857Y-197239285D01*
X251642857Y-196667857D01*
X251571428Y-196525000D01*
X251428571Y-196453571D01*
X251142857Y-196453571D01*
X251000000Y-196525000D01*
X250928571Y-196667857D01*
X250928571Y-196810714D01*
X251642857Y-196953571D01*
X250285714Y-197453571D02*
X250285714Y-196453571D01*
X250285714Y-196739285D02*
X250214285Y-196596428D01*
X250142857Y-196525000D01*
X250000000Y-196453571D01*
X249857142Y-196453571D01*
X248285714Y-196096428D02*
X248214285Y-196025000D01*
X248071428Y-195953571D01*
X247714285Y-195953571D01*
X247571428Y-196025000D01*
X247500000Y-196096428D01*
X247428571Y-196239285D01*
X247428571Y-196382142D01*
X247500000Y-196596428D01*
X248357142Y-197453571D01*
X247428571Y-197453571D01*
X245714285Y-195882142D02*
X247000000Y-197810714D01*
X244428571Y-197453571D02*
X245285714Y-197453571D01*
X244857142Y-197453571D02*
X244857142Y-195953571D01*
X245000000Y-196167857D01*
X245142857Y-196310714D01*
X245285714Y-196382142D01*
X243928571Y-195953571D02*
X243000000Y-195953571D01*
X243500000Y-196525000D01*
X243285714Y-196525000D01*
X243142857Y-196596428D01*
X243071428Y-196667857D01*
X243000000Y-196810714D01*
X243000000Y-197167857D01*
X243071428Y-197310714D01*
X243142857Y-197382142D01*
X243285714Y-197453571D01*
X243714285Y-197453571D01*
X243857142Y-197382142D01*
X243928571Y-197310714D01*
X241285714Y-195882142D02*
X242571428Y-197810714D01*
X240857142Y-196096428D02*
X240785714Y-196025000D01*
X240642857Y-195953571D01*
X240285714Y-195953571D01*
X240142857Y-196025000D01*
X240071428Y-196096428D01*
X240000000Y-196239285D01*
X240000000Y-196382142D01*
X240071428Y-196596428D01*
X240928571Y-197453571D01*
X240000000Y-197453571D01*
X239071428Y-195953571D02*
X238928571Y-195953571D01*
X238785714Y-196025000D01*
X238714285Y-196096428D01*
X238642857Y-196239285D01*
X238571428Y-196525000D01*
X238571428Y-196882142D01*
X238642857Y-197167857D01*
X238714285Y-197310714D01*
X238785714Y-197382142D01*
X238928571Y-197453571D01*
X239071428Y-197453571D01*
X239214285Y-197382142D01*
X239285714Y-197310714D01*
X239357142Y-197167857D01*
X239428571Y-196882142D01*
X239428571Y-196525000D01*
X239357142Y-196239285D01*
X239285714Y-196096428D01*
X239214285Y-196025000D01*
X239071428Y-195953571D01*
X238000000Y-196096428D02*
X237928571Y-196025000D01*
X237785714Y-195953571D01*
X237428571Y-195953571D01*
X237285714Y-196025000D01*
X237214285Y-196096428D01*
X237142857Y-196239285D01*
X237142857Y-196382142D01*
X237214285Y-196596428D01*
X238071428Y-197453571D01*
X237142857Y-197453571D01*
X235714285Y-197453571D02*
X236571428Y-197453571D01*
X236142857Y-197453571D02*
X236142857Y-195953571D01*
X236285714Y-196167857D01*
X236428571Y-196310714D01*
X236571428Y-196382142D01*
D11*
X225150000Y-179190000D03*
X231500000Y-176650000D03*
X56150000Y-160140000D03*
X62500000Y-157600000D03*
D12*
X92040000Y-107500000D03*
X94580000Y-107500000D03*
X97120000Y-107500000D03*
X99660000Y-107500000D03*
D13*
X102200000Y-107500000D03*
D12*
X58920000Y-107500000D03*
X61460000Y-107500000D03*
X64000000Y-107500000D03*
X66540000Y-107500000D03*
X69080000Y-107500000D03*
X71620000Y-107500000D03*
X74160000Y-107500000D03*
D13*
X76700000Y-107500000D03*
D14*
X165200000Y-106500000D03*
X41529000Y-203708000D03*
X297700000Y-203400000D03*
X41529000Y-106500000D03*
X243967000Y-203708000D03*
X296900000Y-106500000D03*
D15*
X245745000Y-119380000D03*
X239395000Y-121920000D03*
X74295000Y-119380000D03*
X67945000Y-121920000D03*
X93345000Y-119380000D03*
X86995000Y-121920000D03*
X112395000Y-119380000D03*
X106045000Y-121920000D03*
X131445000Y-119380000D03*
X125095000Y-121920000D03*
X150495000Y-119380000D03*
X144145000Y-121920000D03*
X169545000Y-119380000D03*
X163195000Y-121920000D03*
X188595000Y-119380000D03*
X182245000Y-121920000D03*
X207645000Y-119380000D03*
X201295000Y-121920000D03*
X226695000Y-119380000D03*
X220345000Y-121920000D03*
X88582500Y-157480000D03*
X82232500Y-160020000D03*
X174308000Y-176530000D03*
X167958000Y-179070000D03*
X136208000Y-176530000D03*
X129858000Y-179070000D03*
X126682000Y-157480000D03*
X120332000Y-160020000D03*
X121920000Y-138430000D03*
X115570000Y-140970000D03*
X145732000Y-157480000D03*
X139382000Y-160020000D03*
X164782000Y-157480000D03*
X158432000Y-160020000D03*
X183832000Y-157480000D03*
X177482000Y-160020000D03*
X217170000Y-138430000D03*
X210820000Y-140970000D03*
X221740000Y-157420000D03*
X215390000Y-159960000D03*
X202740000Y-157480000D03*
X196390000Y-160020000D03*
X240982000Y-157480000D03*
X234632000Y-160020000D03*
X212408000Y-176530000D03*
X206058000Y-179070000D03*
X193358000Y-176530000D03*
X187008000Y-179070000D03*
X236220000Y-138430000D03*
X229870000Y-140970000D03*
X255270000Y-138430000D03*
X248920000Y-140970000D03*
X83940000Y-138420000D03*
X77590000Y-140960000D03*
X140970000Y-138430000D03*
X134620000Y-140970000D03*
X107632000Y-157480000D03*
X101282000Y-160020000D03*
X160020000Y-138430000D03*
X153670000Y-140970000D03*
X198120000Y-138430000D03*
X191770000Y-140970000D03*
X155258000Y-176530000D03*
X148908000Y-179070000D03*
X102870000Y-138430000D03*
X96520000Y-140970000D03*
X117158000Y-176530000D03*
X110808000Y-179070000D03*
X179070000Y-138430000D03*
X172720000Y-140970000D03*
X98107500Y-176530000D03*
X91757500Y-179070000D03*
X67151200Y-176530000D03*
X60801200Y-179070000D03*
X265690000Y-159860000D03*
X272040000Y-157320000D03*
X176689000Y-195580000D03*
X170339000Y-198120000D03*
X267340000Y-176220000D03*
X260990000Y-178760000D03*
D16*
X170867100Y-173737500D03*
X146900000Y-134900000D03*
X215600000Y-169300000D03*
X100387300Y-121090100D03*
D17*
X58920000Y-107500000D02*
X58920000Y-154020000D01*
X58920000Y-154020000D02*
X62500000Y-157600000D01*
X174308000Y-176530000D02*
X173659600Y-176530000D01*
X173659600Y-176530000D02*
X170867100Y-173737500D01*
X176689000Y-195580000D02*
X174308000Y-193199000D01*
X174308000Y-193199000D02*
X174308000Y-176530000D01*
X61460000Y-107500000D02*
X62697800Y-107500000D01*
X183832000Y-157480000D02*
X180959400Y-157480000D01*
X180959400Y-157480000D02*
X164607600Y-141128200D01*
X164607600Y-141128200D02*
X160178200Y-141128200D01*
X160178200Y-141128200D02*
X147467700Y-128417700D01*
X147467700Y-128417700D02*
X141636200Y-128417700D01*
X141636200Y-128417700D02*
X134628800Y-121410300D01*
X134628800Y-121410300D02*
X129914100Y-121410300D01*
X129914100Y-121410300D02*
X113026300Y-104522500D01*
X113026300Y-104522500D02*
X65211100Y-104522500D01*
X65211100Y-104522500D02*
X62697800Y-107035800D01*
X62697800Y-107035800D02*
X62697800Y-107500000D01*
X67151200Y-176530000D02*
X67151200Y-157961200D01*
X67151200Y-157961200D02*
X64000000Y-154810000D01*
X64000000Y-154810000D02*
X64000000Y-107500000D01*
X207645000Y-119380000D02*
X226695000Y-119380000D01*
X71620000Y-108737800D02*
X79774400Y-116892200D01*
X79774400Y-116892200D02*
X79774400Y-137589500D01*
X79774400Y-137589500D02*
X85241200Y-143056300D01*
X85241200Y-143056300D02*
X85241200Y-154138700D01*
X85241200Y-154138700D02*
X88582500Y-157480000D01*
X71620000Y-107500000D02*
X71620000Y-108737800D01*
X74160000Y-107500000D02*
X74160000Y-108737800D01*
X83940000Y-138420000D02*
X83940000Y-118517800D01*
X83940000Y-118517800D02*
X74160000Y-108737800D01*
X76700000Y-107500000D02*
X75462200Y-107500000D01*
X74295000Y-119380000D02*
X70350000Y-115435000D01*
X70350000Y-115435000D02*
X70350000Y-106950000D01*
X70350000Y-106950000D02*
X71037800Y-106262200D01*
X71037800Y-106262200D02*
X74688700Y-106262200D01*
X74688700Y-106262200D02*
X75462200Y-107035700D01*
X75462200Y-107035700D02*
X75462200Y-107500000D01*
X93277800Y-107500000D02*
X93277800Y-107035700D01*
X93277800Y-107035700D02*
X95213000Y-105100500D01*
X95213000Y-105100500D02*
X110459800Y-105100500D01*
X110459800Y-105100500D02*
X127437500Y-122078200D01*
X127437500Y-122078200D02*
X133983700Y-122078200D01*
X133983700Y-122078200D02*
X152875500Y-140970000D01*
X152875500Y-140970000D02*
X153670000Y-140970000D01*
X158432000Y-170936500D02*
X157041500Y-170936500D01*
X157041500Y-170936500D02*
X148908000Y-179070000D01*
X167958000Y-179070000D02*
X159824500Y-170936500D01*
X159824500Y-170936500D02*
X158432000Y-170936500D01*
X158432000Y-170936500D02*
X158432000Y-160020000D01*
X92040000Y-107500000D02*
X93277800Y-107500000D01*
X172720000Y-140970000D02*
X163195000Y-131445000D01*
X163195000Y-131445000D02*
X163195000Y-121920000D01*
X191770000Y-154936900D02*
X187661000Y-159045900D01*
X191770000Y-140970000D02*
X191770000Y-154936900D01*
X187661000Y-159045900D02*
X179776100Y-159045900D01*
X179776100Y-159045900D02*
X179171100Y-158440900D01*
X179171100Y-158440900D02*
X168588500Y-158440900D01*
X168588500Y-158440900D02*
X168008700Y-159020700D01*
X168008700Y-159020700D02*
X161626500Y-159020700D01*
X161626500Y-159020700D02*
X161027200Y-158421400D01*
X161027200Y-158421400D02*
X148022000Y-158421400D01*
X148022000Y-158421400D02*
X146423400Y-160020000D01*
X146423400Y-160020000D02*
X139382000Y-160020000D01*
X187008000Y-179070000D02*
X187661000Y-178417000D01*
X187661000Y-178417000D02*
X187661000Y-159045900D01*
X182245000Y-121920000D02*
X182245000Y-131445000D01*
X182245000Y-131445000D02*
X191770000Y-140970000D01*
X134620000Y-140970000D02*
X134620000Y-155258000D01*
X134620000Y-155258000D02*
X139382000Y-160020000D01*
X95817800Y-107500000D02*
X95817800Y-107035800D01*
X95817800Y-107035800D02*
X97177700Y-105675900D01*
X97177700Y-105675900D02*
X103486900Y-105675900D01*
X103486900Y-105675900D02*
X105958200Y-108147200D01*
X105958200Y-108147200D02*
X105958200Y-110725300D01*
X134620000Y-139387100D02*
X134620000Y-140970000D01*
X129858000Y-179070000D02*
X139382000Y-169546000D01*
X139382000Y-169546000D02*
X139382000Y-160020000D01*
X94580000Y-107500000D02*
X95817800Y-107500000D01*
X125095000Y-129995000D02*
X129900000Y-134800000D01*
X125095000Y-121920000D02*
X125095000Y-129995000D01*
X105958200Y-110725300D02*
X129900000Y-134800000D01*
X129900000Y-134800000D02*
X134620000Y-139387100D01*
X195247001Y-158413901D02*
X191770000Y-154936900D01*
X195247001Y-158877001D02*
X195247001Y-158413901D01*
X196390000Y-160020000D02*
X195247001Y-158877001D01*
X210268200Y-140970000D02*
X210820000Y-140970000D01*
X210268200Y-140970000D02*
X201295000Y-131996800D01*
X201295000Y-131996800D02*
X201295000Y-121920000D01*
X97120000Y-107500000D02*
X98357800Y-107500000D01*
X103437800Y-128837800D02*
X103437800Y-106489300D01*
X103437800Y-106489300D02*
X103210700Y-106262200D01*
X103210700Y-106262200D02*
X99131300Y-106262200D01*
X99131300Y-106262200D02*
X98357800Y-107035700D01*
X98357800Y-107035700D02*
X98357800Y-107500000D01*
X119838400Y-160020000D02*
X115570000Y-155751600D01*
X115570000Y-155751600D02*
X115570000Y-140970000D01*
X119838400Y-160020000D02*
X120332000Y-160020000D01*
X110808000Y-179070000D02*
X110808000Y-169050400D01*
X110808000Y-169050400D02*
X119838400Y-160020000D01*
X107187999Y-132587999D02*
X107500000Y-132900000D01*
X107187999Y-123062999D02*
X107187999Y-132587999D01*
X106045000Y-121920000D02*
X107187999Y-123062999D01*
X115570000Y-140970000D02*
X107500000Y-132900000D01*
X107500000Y-132900000D02*
X103437800Y-128837800D01*
X210820000Y-140970000D02*
X210820000Y-147820000D01*
X215390000Y-152390000D02*
X215390000Y-159960000D01*
X210820000Y-147820000D02*
X215390000Y-152390000D01*
X215390000Y-161576446D02*
X215700000Y-161886446D01*
X215390000Y-159960000D02*
X215390000Y-161576446D01*
X215700000Y-169428000D02*
X206058000Y-179070000D01*
X215700000Y-161886446D02*
X215700000Y-169428000D01*
X96520000Y-140970000D02*
X99660000Y-137830000D01*
X99660000Y-137830000D02*
X99660000Y-107500000D01*
X101282000Y-160020000D02*
X96520000Y-155258000D01*
X96520000Y-155258000D02*
X96520000Y-140970000D01*
X91757500Y-179070000D02*
X101282000Y-169545500D01*
X101282000Y-169545500D02*
X101282000Y-160020000D01*
X229870000Y-140970000D02*
X220345000Y-131445000D01*
X220345000Y-131445000D02*
X220345000Y-121920000D01*
X234632000Y-160020000D02*
X229870000Y-155258000D01*
X229870000Y-155258000D02*
X229870000Y-140970000D01*
X88137999Y-132587999D02*
X95377001Y-139827001D01*
X88137999Y-123062999D02*
X88137999Y-132587999D01*
X95377001Y-139827001D02*
X96520000Y-140970000D01*
X86995000Y-121920000D02*
X88137999Y-123062999D01*
X225150000Y-177634366D02*
X227520000Y-175264366D01*
X225150000Y-179190000D02*
X225150000Y-177634366D01*
X227520000Y-157608000D02*
X229870000Y-155258000D01*
X227520000Y-175264366D02*
X227520000Y-157608000D01*
X82232500Y-175120500D02*
X82232500Y-160020000D01*
X170339000Y-198120000D02*
X105232000Y-198120000D01*
X105232000Y-198120000D02*
X82232500Y-175120500D01*
X60801200Y-179070000D02*
X78283000Y-179070000D01*
X78283000Y-179070000D02*
X82232500Y-175120500D01*
X82232500Y-160020000D02*
X77590000Y-155377500D01*
X77590000Y-155377500D02*
X77590000Y-140960000D01*
X100387300Y-121090100D02*
X102200000Y-119277400D01*
X102200000Y-119277400D02*
X102200000Y-107500000D01*
X248920000Y-140970000D02*
X239395000Y-131445000D01*
X239395000Y-131445000D02*
X239395000Y-121920000D01*
X265690000Y-159860000D02*
X248920000Y-143090000D01*
X248920000Y-143090000D02*
X248920000Y-140970000D01*
X260990000Y-178760000D02*
X265690000Y-174060000D01*
X265690000Y-174060000D02*
X265690000Y-159860000D01*
X76447001Y-139817001D02*
X77590000Y-140960000D01*
X69087999Y-123062999D02*
X69087999Y-132457999D01*
X69087999Y-132457999D02*
X76447001Y-139817001D01*
X67945000Y-121920000D02*
X69087999Y-123062999D01*
M02*
