M48
; DRILL file {KiCad (5.1.5)-3} date 2/13/2021 11:02:20 PM
; FORMAT={-:-/ absolute / inch / decimal}
; #@! TF.CreationDate,2021-02-13T23:02:20-06:00
; #@! TF.GenerationSoftware,Kicad,Pcbnew,(5.1.5)-3
; #@! TF.FileFunction,Plated,1,2,PTH
FMAT,2
INCH
T1C0.0157
T2C0.0394
T3C0.0590
T4C0.0591
T5C0.1260
%
G90
G05
T1
X3.9523Y-4.7673
X5.7835Y-5.311
X6.7271Y-6.8401
X8.4882Y-6.6654
T2
X3.6236Y-4.2323
X3.7236Y-4.2323
X3.8236Y-4.2323
X3.9236Y-4.2323
X4.0236Y-4.2323
X2.3197Y-4.2323
X2.4197Y-4.2323
X2.5197Y-4.2323
X2.6197Y-4.2323
X2.7197Y-4.2323
X2.8197Y-4.2323
X2.9197Y-4.2323
X3.0197Y-4.2323
T3
X5.675Y-4.8
X5.925Y-4.7
X6.05Y-5.55
X6.3Y-5.45
X3.9875Y-6.3
X4.2375Y-6.2
X8.4799Y-6.2976
X8.7299Y-6.1976
X4.175Y-4.8
X4.425Y-4.7
X7.7319Y-6.3
X7.9819Y-6.2
X7.55Y-5.55
X7.8Y-5.45
X10.4602Y-6.2937
X10.7102Y-6.1937
X3.0547Y-5.5496
X3.3047Y-5.4496
X6.9875Y-6.3
X7.2375Y-6.2
X9.425Y-4.8
X9.675Y-4.7
X5.3Y-5.55
X5.55Y-5.45
X3.8Y-5.55
X4.05Y-5.45
X8.3Y-5.55
X8.55Y-5.45
X6.2375Y-6.3
X6.4875Y-6.2
X3.425Y-4.8
X3.675Y-4.7
X7.925Y-4.8
X8.175Y-4.7
X10.2752Y-7.0378
X10.5252Y-6.9378
X8.1125Y-7.05
X8.3625Y-6.95
X9.8Y-5.55
X10.05Y-5.45
X4.7375Y-6.3
X4.9875Y-6.2
X6.425Y-4.8
X6.675Y-4.7
X7.175Y-4.8
X7.425Y-4.7
X5.4875Y-6.3
X5.7375Y-6.2
X3.6125Y-7.05
X3.8625Y-6.95
X2.3937Y-7.05
X2.6437Y-6.95
X9.05Y-5.55
X9.3Y-5.45
X8.675Y-4.8
X8.925Y-4.7
X6.6125Y-7.05
X6.8625Y-6.95
X6.7063Y-7.8
X6.9563Y-7.7
X4.3625Y-7.05
X4.6125Y-6.95
X7.3625Y-7.05
X7.6125Y-6.95
X3.2375Y-6.3
X3.4875Y-6.2
X5.1125Y-7.05
X5.3625Y-6.95
X2.675Y-4.8
X2.925Y-4.7
X5.8625Y-7.05
X6.1125Y-6.95
X6.8Y-5.55
X7.05Y-5.45
X9.2375Y-6.3
X9.4875Y-6.2
X4.925Y-4.8
X5.175Y-4.7
X4.55Y-5.55
X4.8Y-5.45
T4
X8.8642Y-7.0547
X9.1142Y-6.9547
X2.2106Y-6.3047
X2.4606Y-6.2047
T5
X1.635Y-8.02
X6.5039Y-4.1929
X11.7205Y-8.0079
X1.635Y-4.1929
X9.605Y-8.02
X11.689Y-4.1929
T0
M30
