G04 #@! TF.GenerationSoftware,KiCad,Pcbnew,(5.1.5)-3*
G04 #@! TF.CreationDate,2021-02-13T23:02:18-06:00*
G04 #@! TF.ProjectId,SinclairSpectrumKeyboard,53696e63-6c61-4697-9253-706563747275,rev?*
G04 #@! TF.SameCoordinates,Original*
G04 #@! TF.FileFunction,Copper,L1,Top*
G04 #@! TF.FilePolarity,Positive*
%FSLAX46Y46*%
G04 Gerber Fmt 4.6, Leading zero omitted, Abs format (unit mm)*
G04 Created by KiCad (PCBNEW (5.1.5)-3) date 2021-02-13 23:02:18*
%MOMM*%
%LPD*%
G04 APERTURE LIST*
%ADD10C,2.200000*%
%ADD11O,1.700000X1.700000*%
%ADD12R,1.700000X1.700000*%
%ADD13C,6.400000*%
%ADD14C,2.286000*%
%ADD15C,0.600000*%
%ADD16C,0.375000*%
G04 APERTURE END LIST*
D10*
X225150000Y-179190000D03*
X231500000Y-176650000D03*
X56150000Y-160140000D03*
X62500000Y-157600000D03*
D11*
X92040000Y-107500000D03*
X94580000Y-107500000D03*
X97120000Y-107500000D03*
X99660000Y-107500000D03*
D12*
X102200000Y-107500000D03*
D11*
X58920000Y-107500000D03*
X61460000Y-107500000D03*
X64000000Y-107500000D03*
X66540000Y-107500000D03*
X69080000Y-107500000D03*
X71620000Y-107500000D03*
X74160000Y-107500000D03*
D12*
X76700000Y-107500000D03*
D13*
X165200000Y-106500000D03*
X41529000Y-203708000D03*
X297700000Y-203400000D03*
X41529000Y-106500000D03*
X243967000Y-203708000D03*
X296900000Y-106500000D03*
D14*
X245745000Y-119380000D03*
X239395000Y-121920000D03*
X74295000Y-119380000D03*
X67945000Y-121920000D03*
X93345000Y-119380000D03*
X86995000Y-121920000D03*
X112395000Y-119380000D03*
X106045000Y-121920000D03*
X131445000Y-119380000D03*
X125095000Y-121920000D03*
X150495000Y-119380000D03*
X144145000Y-121920000D03*
X169545000Y-119380000D03*
X163195000Y-121920000D03*
X188595000Y-119380000D03*
X182245000Y-121920000D03*
X207645000Y-119380000D03*
X201295000Y-121920000D03*
X226695000Y-119380000D03*
X220345000Y-121920000D03*
X88582500Y-157480000D03*
X82232500Y-160020000D03*
X174308000Y-176530000D03*
X167958000Y-179070000D03*
X136208000Y-176530000D03*
X129858000Y-179070000D03*
X126682000Y-157480000D03*
X120332000Y-160020000D03*
X121920000Y-138430000D03*
X115570000Y-140970000D03*
X145732000Y-157480000D03*
X139382000Y-160020000D03*
X164782000Y-157480000D03*
X158432000Y-160020000D03*
X183832000Y-157480000D03*
X177482000Y-160020000D03*
X217170000Y-138430000D03*
X210820000Y-140970000D03*
X221740000Y-157420000D03*
X215390000Y-159960000D03*
X202740000Y-157480000D03*
X196390000Y-160020000D03*
X240982000Y-157480000D03*
X234632000Y-160020000D03*
X212408000Y-176530000D03*
X206058000Y-179070000D03*
X193358000Y-176530000D03*
X187008000Y-179070000D03*
X236220000Y-138430000D03*
X229870000Y-140970000D03*
X255270000Y-138430000D03*
X248920000Y-140970000D03*
X83940000Y-138420000D03*
X77590000Y-140960000D03*
X140970000Y-138430000D03*
X134620000Y-140970000D03*
X107632000Y-157480000D03*
X101282000Y-160020000D03*
X160020000Y-138430000D03*
X153670000Y-140970000D03*
X198120000Y-138430000D03*
X191770000Y-140970000D03*
X155258000Y-176530000D03*
X148908000Y-179070000D03*
X102870000Y-138430000D03*
X96520000Y-140970000D03*
X117158000Y-176530000D03*
X110808000Y-179070000D03*
X179070000Y-138430000D03*
X172720000Y-140970000D03*
X98107500Y-176530000D03*
X91757500Y-179070000D03*
X67151200Y-176530000D03*
X60801200Y-179070000D03*
X265690000Y-159860000D03*
X272040000Y-157320000D03*
X176689000Y-195580000D03*
X170339000Y-198120000D03*
X267340000Y-176220000D03*
X260990000Y-178760000D03*
D15*
X170867100Y-173737500D03*
X146900000Y-134900000D03*
X215600000Y-169300000D03*
X100387300Y-121090100D03*
D16*
X62500000Y-157600000D02*
X78637500Y-173737500D01*
X78637500Y-173737500D02*
X170867100Y-173737500D01*
X193358000Y-176530000D02*
X174308000Y-176530000D01*
X212408000Y-176530000D02*
X193358000Y-176530000D01*
X231380000Y-176530000D02*
X231500000Y-176650000D01*
X212408000Y-176530000D02*
X231380000Y-176530000D01*
X202882000Y-157480000D02*
X202516100Y-157114100D01*
X202516100Y-157114100D02*
X184197900Y-157114100D01*
X184197900Y-157114100D02*
X183832000Y-157480000D01*
X240982000Y-157480000D02*
X221932000Y-157480000D01*
X272040000Y-157320000D02*
X271880000Y-157480000D01*
X271880000Y-157480000D02*
X240982000Y-157480000D01*
X221932000Y-157480000D02*
X202882000Y-157480000D01*
X98107500Y-176530000D02*
X98094100Y-176543400D01*
X98094100Y-176543400D02*
X67164600Y-176543400D01*
X67164600Y-176543400D02*
X67151200Y-176530000D01*
X155258000Y-176530000D02*
X136208000Y-176530000D01*
X267340000Y-176220000D02*
X267267500Y-176292500D01*
X219210000Y-174987600D02*
X156800400Y-174987600D01*
X156800400Y-174987600D02*
X155258000Y-176530000D01*
X117158000Y-176530000D02*
X136208000Y-176530000D01*
X98107500Y-176530000D02*
X117158000Y-176530000D01*
X219210000Y-174987600D02*
X219210000Y-174730000D01*
X219210000Y-174730000D02*
X220960000Y-172980000D01*
X244970000Y-172980000D02*
X248210000Y-176220000D01*
X220960000Y-172980000D02*
X244970000Y-172980000D01*
X267267500Y-176292500D02*
X248210000Y-176220000D01*
X67777800Y-107500000D02*
X67777800Y-107964200D01*
X67777800Y-107964200D02*
X77662700Y-117849100D01*
X77662700Y-117849100D02*
X152032700Y-117849100D01*
X152032700Y-117849100D02*
X172613600Y-138430000D01*
X172613600Y-138430000D02*
X179070000Y-138430000D01*
X179070000Y-138430000D02*
X198120000Y-138430000D01*
X66540000Y-107500000D02*
X67777800Y-107500000D01*
X236220000Y-138430000D02*
X217170000Y-138430000D01*
X255270000Y-138430000D02*
X236220000Y-138430000D01*
X198120000Y-138430000D02*
X217170000Y-138430000D01*
X169545000Y-119380000D02*
X167438700Y-117273700D01*
X167438700Y-117273700D02*
X79627300Y-117273700D01*
X79627300Y-117273700D02*
X70317800Y-107964200D01*
X70317800Y-107964200D02*
X70317800Y-107500000D01*
X188595000Y-119380000D02*
X169545000Y-119380000D01*
X69080000Y-107500000D02*
X70317800Y-107500000D01*
X207645000Y-119380000D02*
X188595000Y-119380000D01*
X226695000Y-119380000D02*
X245745000Y-119380000D01*
X107632000Y-157480000D02*
X88582500Y-157480000D01*
X126682000Y-157480000D02*
X107632000Y-157480000D01*
X145732000Y-157480000D02*
X126682000Y-157480000D01*
X164782000Y-157480000D02*
X145732000Y-157480000D01*
X102870000Y-138430000D02*
X83950000Y-138430000D01*
X83950000Y-138430000D02*
X83940000Y-138420000D01*
X121920000Y-138430000D02*
X102870000Y-138430000D01*
X140970000Y-138430000D02*
X121920000Y-138430000D01*
X160020000Y-138430000D02*
X140970000Y-138430000D01*
X74295000Y-119380000D02*
X93345000Y-119380000D01*
X112395000Y-119380000D02*
X93345000Y-119380000D01*
X131445000Y-119380000D02*
X112395000Y-119380000D01*
X150495000Y-119380000D02*
X131445000Y-119380000D01*
X172720000Y-155258000D02*
X177482000Y-160020000D01*
X172720000Y-140970000D02*
X172720000Y-155258000D01*
X158432000Y-160020000D02*
X167958000Y-160020000D01*
X167958000Y-160020000D02*
X172720000Y-155258000D01*
X153670000Y-140970000D02*
X172720000Y-140970000D01*
X144145000Y-121920000D02*
X144145000Y-132145000D01*
X144145000Y-132145000D02*
X146900000Y-134900000D01*
X146900000Y-134900000D02*
X146900000Y-134900000D01*
X120332000Y-160020000D02*
X131142700Y-160020000D01*
X135911350Y-164788650D02*
X140422700Y-169300000D01*
X135911350Y-164788650D02*
X136088400Y-164965700D01*
X131142700Y-160020000D02*
X135911350Y-164788650D01*
X140422700Y-169300000D02*
X215600000Y-169300000D01*
X215600000Y-169300000D02*
X215600000Y-169300000D01*
X220345000Y-121920000D02*
X213988300Y-115563300D01*
X213988300Y-115563300D02*
X107955400Y-115563300D01*
X107955400Y-115563300D02*
X100897800Y-108505700D01*
X100897800Y-108505700D02*
X100897800Y-107500000D01*
X56150000Y-160140000D02*
X62267600Y-154022400D01*
X62267600Y-154022400D02*
X81426800Y-154022400D01*
X81426800Y-154022400D02*
X94479200Y-140970000D01*
X94479200Y-140970000D02*
X96520000Y-140970000D01*
X99660000Y-107500000D02*
X100897800Y-107500000D01*
X77590000Y-140960000D02*
X77740000Y-140960000D01*
X77740000Y-140960000D02*
X93713000Y-124987000D01*
X93713000Y-124987000D02*
X93713000Y-124836300D01*
X93713000Y-124836300D02*
X97459200Y-121090100D01*
X97459200Y-121090100D02*
X100387300Y-121090100D01*
X260990000Y-178760000D02*
X251948500Y-178760000D01*
X251948500Y-178760000D02*
X232588500Y-198120000D01*
X232588500Y-198120000D02*
X170339000Y-198120000D01*
M02*
