G04 #@! TF.GenerationSoftware,KiCad,Pcbnew,(5.1.5)-3*
G04 #@! TF.CreationDate,2021-02-13T23:02:18-06:00*
G04 #@! TF.ProjectId,SinclairSpectrumKeyboard,53696e63-6c61-4697-9253-706563747275,rev?*
G04 #@! TF.SameCoordinates,Original*
G04 #@! TF.FileFunction,Soldermask,Bot*
G04 #@! TF.FilePolarity,Negative*
%FSLAX46Y46*%
G04 Gerber Fmt 4.6, Leading zero omitted, Abs format (unit mm)*
G04 Created by KiCad (PCBNEW (5.1.5)-3) date 2021-02-13 23:02:18*
%MOMM*%
%LPD*%
G04 APERTURE LIST*
%ADD10C,2.100000*%
%ADD11C,4.400000*%
%ADD12C,2.600000*%
%ADD13O,2.100000X2.100000*%
%ADD14R,2.100000X2.100000*%
%ADD15C,6.800000*%
%ADD16C,2.686000*%
G04 APERTURE END LIST*
D10*
X234040000Y-181730000D03*
X223880000Y-181730000D03*
D11*
X228960000Y-181730000D03*
D12*
X225150000Y-179190000D03*
X231500000Y-176650000D03*
D10*
X65040000Y-162680000D03*
X54880000Y-162680000D03*
D11*
X59960000Y-162680000D03*
D12*
X56150000Y-160140000D03*
X62500000Y-157600000D03*
D13*
X92040000Y-107500000D03*
X94580000Y-107500000D03*
X97120000Y-107500000D03*
X99660000Y-107500000D03*
D14*
X102200000Y-107500000D03*
D13*
X58920000Y-107500000D03*
X61460000Y-107500000D03*
X64000000Y-107500000D03*
X66540000Y-107500000D03*
X69080000Y-107500000D03*
X71620000Y-107500000D03*
X74160000Y-107500000D03*
D14*
X76700000Y-107500000D03*
D15*
X165200000Y-106500000D03*
X41529000Y-203708000D03*
X297700000Y-203400000D03*
X41529000Y-106500000D03*
X243967000Y-203708000D03*
X296900000Y-106500000D03*
D16*
X245745000Y-119380000D03*
X239395000Y-121920000D03*
X74295000Y-119380000D03*
X67945000Y-121920000D03*
X93345000Y-119380000D03*
X86995000Y-121920000D03*
X112395000Y-119380000D03*
X106045000Y-121920000D03*
X131445000Y-119380000D03*
X125095000Y-121920000D03*
X150495000Y-119380000D03*
X144145000Y-121920000D03*
X169545000Y-119380000D03*
X163195000Y-121920000D03*
X188595000Y-119380000D03*
X182245000Y-121920000D03*
X207645000Y-119380000D03*
X201295000Y-121920000D03*
X226695000Y-119380000D03*
X220345000Y-121920000D03*
X88582500Y-157480000D03*
X82232500Y-160020000D03*
X174308000Y-176530000D03*
X167958000Y-179070000D03*
X136208000Y-176530000D03*
X129858000Y-179070000D03*
X126682000Y-157480000D03*
X120332000Y-160020000D03*
X121920000Y-138430000D03*
X115570000Y-140970000D03*
X145732000Y-157480000D03*
X139382000Y-160020000D03*
X164782000Y-157480000D03*
X158432000Y-160020000D03*
X183832000Y-157480000D03*
X177482000Y-160020000D03*
X217170000Y-138430000D03*
X210820000Y-140970000D03*
X221740000Y-157420000D03*
X215390000Y-159960000D03*
X202740000Y-157480000D03*
X196390000Y-160020000D03*
X240982000Y-157480000D03*
X234632000Y-160020000D03*
X212408000Y-176530000D03*
X206058000Y-179070000D03*
X193358000Y-176530000D03*
X187008000Y-179070000D03*
X236220000Y-138430000D03*
X229870000Y-140970000D03*
X255270000Y-138430000D03*
X248920000Y-140970000D03*
X83940000Y-138420000D03*
X77590000Y-140960000D03*
X140970000Y-138430000D03*
X134620000Y-140970000D03*
X107632000Y-157480000D03*
X101282000Y-160020000D03*
X160020000Y-138430000D03*
X153670000Y-140970000D03*
X198120000Y-138430000D03*
X191770000Y-140970000D03*
X155258000Y-176530000D03*
X148908000Y-179070000D03*
X102870000Y-138430000D03*
X96520000Y-140970000D03*
X117158000Y-176530000D03*
X110808000Y-179070000D03*
X179070000Y-138430000D03*
X172720000Y-140970000D03*
X98107500Y-176530000D03*
X91757500Y-179070000D03*
X67151200Y-176530000D03*
X60801200Y-179070000D03*
X265690000Y-159860000D03*
X272040000Y-157320000D03*
X176689000Y-195580000D03*
X170339000Y-198120000D03*
X267340000Y-176220000D03*
X260990000Y-178760000D03*
M02*
